<?xml version="1.0" encoding="UTF-8" standalone="no"?>
<svg
   width="210mm"
   height="297mm"
   viewBox="0 0 210 297"
   version="1.1"
   id="svg8"
   sodipodi:docname="REGI.svg"
   inkscape:version="1.1.1 (3bf5ae0d25, 2021-09-20)"
   xmlns:inkscape="http://www.inkscape.org/namespaces/inkscape"
   xmlns:sodipodi="http://sodipodi.sourceforge.net/DTD/sodipodi-0.dtd"
   xmlns="http://www.w3.org/2000/svg"
   xmlns:svg="http://www.w3.org/2000/svg"
   xmlns:rdf="http://www.w3.org/1999/02/22-rdf-syntax-ns#"
   xmlns:cc="http://creativecommons.org/ns#"
   xmlns:dc="http://purl.org/dc/elements/1.1/">
  <defs
     id="defs2">
    <pattern
       id="EMFhbasepattern"
       patternUnits="userSpaceOnUse"
       width="6"
       height="6"
       x="0"
       y="0" />
  </defs>
  <sodipodi:namedview
     id="base"
     pagecolor="#ffffff"
     bordercolor="#666666"
     borderopacity="1.0"
     inkscape:pageopacity="0.0"
     inkscape:pageshadow="2"
     inkscape:zoom="0.175"
     inkscape:cx="-1274.2857"
     inkscape:cy="1725.7143"
     inkscape:document-units="mm"
     inkscape:current-layer="layer1"
     inkscape:document-rotation="0"
     showgrid="false"
     inkscape:window-width="1920"
     inkscape:window-height="1009"
     inkscape:window-x="-8"
     inkscape:window-y="-8"
     inkscape:window-maximized="1"
     inkscape:snap-global="false"
     inkscape:pagecheckerboard="0" />
  <metadata
     id="metadata5">
    <rdf:RDF>
      <cc:Work
         rdf:about="">
        <dc:format>image/svg+xml</dc:format>
        <dc:type
           rdf:resource="http://purl.org/dc/dcmitype/StillImage" />
      </cc:Work>
    </rdf:RDF>
  </metadata>
  <g
     inkscape:label="Layer 1"
     inkscape:groupmode="layer"
     id="layer1">
    <g
       id="g7103"
       transform="translate(-12.299504,-48.540253)"
       inkscape:export-filename="D:\PROJETOS\site\regi-logo.png"
       inkscape:export-xdpi="95.152901"
       inkscape:export-ydpi="95.152901">
      <circle
         style="fill:#ff0000;fill-opacity:1;fill-rule:nonzero;stroke:none;stroke-width:7.6673"
         id="path6758"
         cx="121.35202"
         cy="197.04025"
         r="59.252586" />
      <g
         id="g6802"
         transform="matrix(2.6589882,0,0,2.6589882,1219.422,-504.15463)"
         style="fill:#ffffff">
        <text
           xml:space="preserve"
           style="font-style:normal;font-variant:normal;font-weight:normal;font-stretch:normal;font-size:4.71649px;font-family:'Agency FB';-inkscape-font-specification:'Agency FB, Normal';font-variant-ligatures:normal;font-variant-caps:normal;font-variant-numeric:normal;font-variant-east-asian:normal;text-align:center;text-anchor:middle;fill:#ffffff;stroke:none;stroke-width:3.23984"
           x="-253.28235"
           y="452.50058"
           id="text2028"
           transform="scale(1.6303805,0.61335376)"><tspan
             sodipodi:role="line"
             id="tspan2026"
             x="-253.28235"
             y="452.50058"
             style="fill:#ffffff;stroke-width:3.23984">TECNOLOGIA</tspan></text>
        <text
           xml:space="preserve"
           style="font-style:normal;font-variant:normal;font-weight:bold;font-stretch:condensed;font-size:14.1111px;font-family:'Agency FB';-inkscape-font-specification:'Agency FB, Bold Condensed';font-variant-ligatures:normal;font-variant-caps:normal;font-variant-numeric:normal;font-variant-east-asian:normal;text-align:center;text-anchor:middle;fill:#ffffff;stroke:none;stroke-width:1.265"
           x="-423.9812"
           y="274.47729"
           id="text2032"><tspan
             sodipodi:role="line"
             id="tspan2030"
             x="-423.9812"
             y="274.47729"
             style="font-style:normal;font-variant:normal;font-weight:bold;font-stretch:condensed;font-size:14.1111px;font-family:'Agency FB';-inkscape-font-specification:'Agency FB, Bold Condensed';font-variant-ligatures:normal;font-variant-caps:normal;font-variant-numeric:normal;font-variant-east-asian:normal;fill:#ffffff;stroke-width:1.265">R</tspan></text>
        <text
           xml:space="preserve"
           style="font-style:normal;font-variant:normal;font-weight:bold;font-stretch:condensed;font-size:14.1111px;font-family:'Agency FB';-inkscape-font-specification:'Agency FB, Bold Condensed';font-variant-ligatures:normal;font-variant-caps:normal;font-variant-numeric:normal;font-variant-east-asian:normal;text-align:center;text-anchor:middle;fill:#ffffff;stroke:none;stroke-width:1.265"
           x="-412.04483"
           y="274.47729"
           id="text2036"><tspan
             sodipodi:role="line"
             id="tspan2034"
             x="-412.04483"
             y="274.47729"
             style="font-style:normal;font-variant:normal;font-weight:bold;font-stretch:condensed;font-size:14.1111px;font-family:'Agency FB';-inkscape-font-specification:'Agency FB, Bold Condensed';font-variant-ligatures:normal;font-variant-caps:normal;font-variant-numeric:normal;font-variant-east-asian:normal;fill:#ffffff;stroke-width:1.265">K</tspan></text>
        <text
           xml:space="preserve"
           style="font-style:normal;font-variant:normal;font-weight:normal;font-stretch:normal;font-size:6.78697px;font-family:'Agency FB';-inkscape-font-specification:'Agency FB, Normal';font-variant-ligatures:normal;font-variant-caps:normal;font-variant-numeric:normal;font-variant-east-asian:normal;text-align:center;text-anchor:middle;fill:#ffffff;stroke:none;stroke-width:0.608426"
           x="-414.7114"
           y="276.45844"
           id="text2040"
           transform="scale(1.0075477,0.9925088)"><tspan
             sodipodi:role="line"
             id="tspan2038"
             x="-414.7114"
             y="276.45844"
             style="font-style:normal;font-variant:normal;font-weight:normal;font-stretch:normal;font-size:6.78697px;font-family:'Agency FB';-inkscape-font-specification:'Agency FB, Normal';font-variant-ligatures:normal;font-variant-caps:normal;font-variant-numeric:normal;font-variant-east-asian:normal;fill:#ffffff;stroke-width:0.608426">EGI</tspan></text>
        <text
           xml:space="preserve"
           style="font-style:normal;font-variant:normal;font-weight:normal;font-stretch:normal;font-size:7.45982px;font-family:'Agency FB';-inkscape-font-specification:'Agency FB, Normal';font-variant-ligatures:normal;font-variant-caps:normal;font-variant-numeric:normal;font-variant-east-asian:normal;text-align:center;text-anchor:middle;fill:#ffffff;stroke:none;stroke-width:0.668741"
           x="-362.60428"
           y="305.87762"
           id="text2044"
           transform="scale(1.1150028,0.89685877)"><tspan
             sodipodi:role="line"
             id="tspan2042"
             x="-362.60428"
             y="305.87762"
             style="font-style:normal;font-variant:normal;font-weight:normal;font-stretch:normal;font-size:7.45982px;font-family:'Agency FB';-inkscape-font-specification:'Agency FB, Normal';font-variant-ligatures:normal;font-variant-caps:normal;font-variant-numeric:normal;font-variant-east-asian:normal;fill:#ffffff;stroke-width:0.668741">OGA</tspan></text>
      </g>
      <g
         id="g6790"
         transform="matrix(14.228755,-4.3387159,1.8406345,6.0363339,3620.6645,-2373.2866)"
         style="fill:#0000ff">
        <path
           id="path6749"
           style="opacity:1;fill:#0000ff;fill-opacity:1;fill-rule:nonzero;stroke:none;stroke-width:1.265"
           d="m -276.88489,224.1488 a 3.7417734,3.5079125 0 0 0 -3.32486,1.92443 3.7417734,3.5079125 0 0 1 2.60345,-0.98909 3.7417734,3.5079125 0 0 1 3.7419,3.5078 3.7417734,3.5079125 0 0 1 -0.4036,1.58439 3.7417734,3.5079125 0 0 0 1.13895,-2.51974 3.7417734,3.5079125 0 0 0 -3.74189,-3.50779 3.7417734,3.5079125 0 0 0 -0.014,0 z" />
        <path
           id="path6754"
           style="opacity:1;fill:#0000ff;fill-opacity:1;fill-rule:nonzero;stroke:none;stroke-width:1.265"
           d="m -275.54854,222.54518 a 3.7417734,3.5079125 0 0 0 -3.32486,1.92443 3.7417734,3.5079125 0 0 1 2.60344,-0.98909 3.7417734,3.5079125 0 0 1 3.7419,3.5078 3.7417734,3.5079125 0 0 1 -0.40359,1.5844 3.7417734,3.5079125 0 0 0 1.13895,-2.51975 3.7417734,3.5079125 0 0 0 -3.7419,-3.50779 3.7417734,3.5079125 0 0 0 -0.014,0 z" />
        <path
           id="path6756"
           style="opacity:1;fill:#0000ff;fill-opacity:1;fill-rule:nonzero;stroke:none;stroke-width:1.265"
           d="m -274.27901,220.87475 a 3.7417734,3.5079125 0 0 0 -3.32486,1.92443 3.7417734,3.5079125 0 0 1 2.60344,-0.98909 3.7417734,3.5079125 0 0 1 3.7419,3.5078 3.7417734,3.5079125 0 0 1 -0.40359,1.5844 3.7417734,3.5079125 0 0 0 1.13895,-2.51975 3.7417734,3.5079125 0 0 0 -3.7419,-3.50779 3.7417734,3.5079125 0 0 0 -0.014,0 z" />
      </g>
      <g
         id="g6922"
         style="opacity:0.621103;fill:#ffffff"
         transform="matrix(0.25532915,0.00987098,-0.01045737,0.24101184,146.49349,104.29585)">
        <path
           id="path6898"
           style="opacity:1;fill:#ffffff;fill-opacity:1;fill-rule:nonzero;stroke:none;stroke-width:4.7811"
           d="m 350,1271.0723 0.35742,58.2129 c 0,0 -61.19122,1.9054 -91.78683,2.8582 -8.74405,0.2723 -0.1297,14.9998 13.92941,20.714 l 77.5,-9.6426 1.78516,37.5 -38.92774,5 -9.64258,-3.5722 -12.5,-3.5703 -5,6.4277 8.57032,10.3574 6.07226,35.3574 10.71485,25.7129 9.64257,2.8575 5,-6.4278 75.71289,-3.9297 3.21485,6.4297 6.78515,1.7852 7.5,-3.2149 18.2154,-67.4989 -16.78571,-10.3565 -48.92969,3.2129 -1.07031,-37.8575 66.42774,-0.7129 29.28711,-0.3574 3.92773,-5.7148 -10,-8.9278 -89.28516,2.8575 -0.35742,-20 0.35742,-6.4297 1.78516,-6.4278 2.5,-5 -0.71484,-6.0722 -6.42774,-7.1426 -11.78515,-5.3574 z m 70.26367,119.4765 -10.31445,44.7871 -88.94336,6.1993 -7.00781,-40.3926 z"
           transform="scale(0.26458333)"
           sodipodi:nodetypes="ccscccccccccccccccccccccccccccccccccccccc" />
        <path
           id="path6905"
           style="opacity:1;fill:#ffffff;fill-opacity:1;fill-rule:nonzero;stroke:none;stroke-width:4.7811"
           d="m 300.71484,1459.2852 -1.07226,8.5722 5,3.2149 -2.14258,11.4277 -33.21484,4.2852 -7.14258,-3.2129 -4.28516,3.5703 0.35742,8.2148 5.71289,6.7852 16.07227,3.9297 12.85742,-7.1446 -5,11.0723 -7.85742,11.0723 -10,10.3554 -14.64258,15 1.07031,2.8575 3.92969,1.7871 H 265 l 4.64258,-2.1446 9.64258,-7.5 16.42968,-15 8.21289,-10.3554 13.21485,-20 20.71484,-3.2149 -10.71484,27.1426 -21.42774,-2.5 -2.14257,1.7852 -2.14454,2.5 2.14454,2.5 3.92773,1.4296 6.78516,3.5704 4.64257,2.8574 2.5,5.7148 -7.5,-3.9297 -7.14257,-0.3554 h -5.71289 L 297.5,1535 l -1.07227,5.3574 4.64454,2.1426 2.85546,4.2852 -0.35546,34.2871 -0.35743,28.9277 6.42774,9.2852 6.42969,2.1425 3.57031,-0.7129 2.14258,-2.1425 1.42968,2.1425 L 307.5,1630 l -15.71484,8.9277 -17.5,6.7871 -1.07032,3.9278 4.28516,3.2148 h 4.64258 l 20.35742,-6.0722 48.21484,-18.9278 -1.07226,-6.0722 -4.28516,-3.2129 -1.07226,-1.7871 31.07226,-1.7852 29.28516,21.7852 26.42969,17.1425 8.21289,-1.4277 2.5,-8.2148 -3.92774,-6.0704 -7.5,-7.8574 -8.92969,-4.6426 L 402.5,1620 l -11.07227,-4.6426 9.64454,-0.7148 3.57031,2.5 4.64258,2.5 4.28711,-0.3574 5,-2.8575 2.85546,-6.0703 -0.71289,-62.1426 L 425,1540 l -10.71484,-9.6426 -8.92774,-2.1426 -7.85742,-0.3574 -5.35742,1.7852 5,-5.3574 36.07226,-3.5704 3.92774,2.8575 h 9.64258 l 4.28711,-5.3575 14.64257,-33.5722 -7.5,-6.0703 -13.57226,-5 -16.78516,2.8574 -38.57226,3.9277 h -6.42774 l -10.35742,-2.1426 -2.14258,8.2129 6.07031,23.9297 3.57227,15.3574 7.14258,2.5 -46.42774,5.3575 23.21289,-44.6446 -8.92773,-12.498 -10.35742,-2.8574 -19.64258,5.3554 6.42773,-5.3554 -3.21289,-6.0723 z m 142.78516,24.4257 2.23438,25.6172 -55.22657,4.8184 -2.23437,-25.6172 z m -34.61719,61.7227 1.6543,55.1797 -93.34766,2.7988 -1.65429,-55.1797 z"
           transform="scale(0.26458333)" />
        <ellipse
           style="opacity:1;fill:#ffffff;fill-opacity:1;fill-rule:nonzero;stroke:none;stroke-width:1.29403"
           id="path6914"
           cx="65.429024"
           cy="419.13547"
           rx="13.843377"
           ry="1.8898809"
           transform="rotate(-4.2536167)" />
        <ellipse
           style="opacity:1;fill:#ffffff;fill-opacity:1;fill-rule:nonzero;stroke:none;stroke-width:1.265"
           id="path6916"
           cx="72.757622"
           cy="423.74698"
           rx="14.788318"
           ry="1.7008928"
           transform="rotate(-3.166479)" />
      </g>
    </g>
  </g>
</svg>
